<svg width="27" height="27" viewBox="0 0 27 27" fill="none" xmlns="http://www.w3.org/2000/svg">
<path fill-rule="evenodd" clip-rule="evenodd" d="M6.94262 1.5C3.93674 1.5 1.5 3.93674 1.5 6.94262V19.3278C1.5 22.3337 3.93674 24.7705 6.94262 24.7705H19.3278C22.3337 24.7705 24.7705 22.3337 24.7705 19.3278V6.94262C24.7705 3.93674 22.3337 1.5 19.3278 1.5H6.94262ZM0 6.94262C0 3.10831 3.10831 0 6.94262 0H19.3278C23.1621 0 26.2705 3.10831 26.2705 6.94262V19.3278C26.2705 23.1621 23.1621 26.2705 19.3278 26.2705H6.94262C3.10831 26.2705 0 23.1621 0 19.3278V6.94262ZM13.8051 8.92292C12.9304 8.79321 12.0371 8.94262 11.2522 9.34989C10.4673 9.75716 9.83079 10.4016 9.43323 11.1914C9.03567 11.9813 8.89729 12.8764 9.03777 13.7494C9.17826 14.6225 9.59045 15.429 10.2157 16.0543C10.841 16.6796 11.6475 17.0918 12.5206 17.2322C13.3936 17.3727 14.2887 17.2343 15.0786 16.8368C15.8685 16.4392 16.5129 15.8027 16.9201 15.0178C17.3274 14.2329 17.4768 13.3396 17.3471 12.4649C17.2148 11.5726 16.799 10.7466 16.1612 10.1088C15.5234 9.47099 14.6974 9.05523 13.8051 8.92292ZM10.5613 8.01845C11.6263 7.46587 12.8384 7.26316 14.0252 7.43915C15.2358 7.61866 16.3565 8.18276 17.2219 9.04814C18.0872 9.91351 18.6514 11.0343 18.8309 12.2448C19.0069 13.4316 18.8041 14.6437 18.2516 15.7087C17.699 16.7736 16.8247 17.6372 15.753 18.1766C14.6813 18.716 13.4668 18.9038 12.2823 18.7132C11.0977 18.5226 10.0034 17.9633 9.15507 17.1149C8.3067 16.2666 7.74743 15.1723 7.55682 13.9877C7.36622 12.8032 7.55397 11.5887 8.09338 10.517C8.63279 9.44535 9.49639 8.57104 10.5613 8.01845ZM19.9473 5.57324C19.5331 5.57324 19.1973 5.90903 19.1973 6.32324C19.1973 6.73746 19.5331 7.07324 19.9473 7.07324H19.9603C20.3745 7.07324 20.7103 6.73746 20.7103 6.32324C20.7103 5.90903 20.3745 5.57324 19.9603 5.57324H19.9473Z" fill="#7A7E85"/>
</svg>
