<svg width="20" height="14" viewBox="0 0 20 14" fill="none" xmlns="http://www.w3.org/2000/svg">
<path fill-rule="evenodd" clip-rule="evenodd" d="M0.75 0C0.335786 0 0 0.335786 0 0.75C0 1.16421 0.335786 1.5 0.75 1.5H0.76C1.17421 1.5 1.51 1.16421 1.51 0.75C1.51 0.335786 1.17421 0 0.76 0H0.75ZM5.75 0C5.33579 0 5 0.335786 5 0.75C5 1.16421 5.33579 1.5 5.75 1.5H18.75C19.1642 1.5 19.5 1.16421 19.5 0.75C19.5 0.335786 19.1642 0 18.75 0H5.75ZM5.75 6C5.33579 6 5 6.33579 5 6.75C5 7.16421 5.33579 7.5 5.75 7.5H18.75C19.1642 7.5 19.5 7.16421 19.5 6.75C19.5 6.33579 19.1642 6 18.75 6H5.75ZM5 12.75C5 12.3358 5.33579 12 5.75 12H18.75C19.1642 12 19.5 12.3358 19.5 12.75C19.5 13.1642 19.1642 13.5 18.75 13.5H5.75C5.33579 13.5 5 13.1642 5 12.75ZM0 6.75C0 6.33579 0.335786 6 0.75 6H0.76C1.17421 6 1.51 6.33579 1.51 6.75C1.51 7.16421 1.17421 7.5 0.76 7.5H0.75C0.335786 7.5 0 7.16421 0 6.75ZM0.75 12C0.335786 12 0 12.3358 0 12.75C0 13.1642 0.335786 13.5 0.75 13.5H0.76C1.17421 13.5 1.51 13.1642 1.51 12.75C1.51 12.3358 1.17421 12 0.76 12H0.75Z" fill="#494E55"/>
</svg>
