<svg width="22" height="22" viewBox="0 0 22 22" fill="none" xmlns="http://www.w3.org/2000/svg">
<path fill-rule="evenodd" clip-rule="evenodd" d="M1.5 11.25C1.5 6.14137 5.64137 2 10.75 2C15.8586 2 20 6.14137 20 11.25C20 16.3586 15.8586 20.5 10.75 20.5C5.64137 20.5 1.5 16.3586 1.5 11.25ZM10.75 0.5C4.81294 0.5 0 5.31294 0 11.25C0 17.1871 4.81294 22 10.75 22C16.6871 22 21.5 17.1871 21.5 11.25C21.5 5.31294 16.6871 0.5 10.75 0.5ZM11.5 5.25C11.5 4.83579 11.1642 4.5 10.75 4.5C10.3358 4.5 10 4.83579 10 5.25V11.25C10 11.5341 10.1605 11.7938 10.4146 11.9208L14.4146 13.9208C14.7851 14.1061 15.2356 13.9559 15.4208 13.5854C15.6061 13.2149 15.4559 12.7644 15.0854 12.5792L11.5 10.7865V5.25Z" fill="#494E55"/>
</svg>
