<svg width="21" height="22" viewBox="0 0 21 22" fill="none" xmlns="http://www.w3.org/2000/svg">
<path fill-rule="evenodd" clip-rule="evenodd" d="M0.75 0.5C0.335786 0.5 0 0.835786 0 1.25V11.25C0 11.4491 0.0791376 11.64 0.219979 11.7806L8.80937 20.36L8.80971 20.3604C9.06504 20.6159 9.36821 20.8186 9.70191 20.9569C10.0358 21.0953 10.3936 21.1666 10.755 21.1666C11.1164 21.1666 11.4742 21.0953 11.8081 20.9569C12.1419 20.8186 12.4452 20.6157 12.7006 20.36L19.8703 13.1903L19.34 12.66L19.8719 13.1888C20.3841 12.6735 20.6716 11.9765 20.6716 11.25C20.6716 10.5235 20.3841 9.8265 19.8719 9.31125L19.8703 9.30967L11.2803 0.71967C11.1397 0.579018 10.9489 0.5 10.75 0.5H0.75ZM18.8087 12.1307L18.8081 12.1312L11.6397 19.2997L11.6394 19.3C11.5233 19.4162 11.3854 19.5084 11.2337 19.5713C11.0819 19.6342 10.9193 19.6666 10.755 19.6666C10.5907 19.6666 10.4281 19.6342 10.2763 19.5713C10.1246 19.5084 9.98672 19.4162 9.87063 19.3L9.87002 19.2994L1.5 10.9391V2H10.4393L18.8081 10.3688L18.8087 10.3693C19.0411 10.6035 19.1716 10.92 19.1716 11.25C19.1716 11.58 19.0411 11.8965 18.8087 12.1307ZM5.75 5.5C5.33579 5.5 5 5.83579 5 6.25C5 6.66421 5.33579 7 5.75 7H5.76C6.17421 7 6.51 6.66421 6.51 6.25C6.51 5.83579 6.17421 5.5 5.76 5.5H5.75Z" fill="#494E55"/>
</svg>
