<svg width="29" height="30" viewBox="0 0 29 30" fill="none" xmlns="http://www.w3.org/2000/svg">
<path d="M13.7363 0C11.281 0.0350007 6.00608 0.430009 3.05901 3.08381C0.870049 5.23385 0.0979236 8.37517 0.0176531 12.2715C-0.0626173 16.1666 -0.167096 23.4705 7.00883 25.4505H7.01265L7.00755 28.4706C7.00755 28.4706 6.96041 29.6918 7.78477 29.9418C8.77478 30.2444 9.35705 29.3168 10.3076 28.3143C10.8261 27.7643 11.546 26.9593 12.0875 26.3393C16.9929 26.7468 20.7669 25.8193 21.1976 25.683C22.1863 25.368 27.7925 24.663 28.7048 17.3616C29.6476 9.83644 28.2461 5.07385 25.7233 2.92881C24.9639 2.24129 21.8933 0.0537511 15.0524 0.0250005C15.0524 0.0250005 14.5492 -0.00625012 13.7312 0.00375007L13.7363 0ZM13.8165 1.35203C14.5109 1.34703 14.9378 1.37328 14.9378 1.37328C20.7249 1.39828 24.1954 3.28895 24.8388 3.86146C26.973 5.65524 28.3451 10.7317 27.55 17.0181C26.7804 23.1157 21.6217 24.3413 20.7833 24.6051C20.4266 24.7176 16.251 25.3455 12.0833 25.0793C12.0833 25.0793 9.46153 27.8931 8.49192 28.8481C8.33902 28.9981 8.16064 29.0568 8.04342 29.0281C7.87779 28.9868 7.83192 28.7931 7.83319 28.5106L7.75127 24.2515C1.68384 22.6015 1.39786 15.5859 1.46794 12.332C1.53674 9.07697 2.51662 5.65524 4.36794 3.86146C6.86524 1.64516 11.732 1.36703 13.8165 1.35203ZM14.2943 5.36886C14.1955 5.37374 14.1024 5.41552 14.034 5.48563C13.9656 5.55573 13.9272 5.64884 13.9265 5.74588C13.9259 5.84291 13.9631 5.93652 14.0305 6.0075C14.098 6.07848 14.1905 6.12146 14.2892 6.12762C16.3584 6.14012 18.0428 6.79889 19.4214 8.11766C20.7886 9.42519 21.4855 11.2027 21.5021 13.5353C21.5047 13.744 21.6805 13.9103 21.8933 13.9103C21.9951 13.909 22.0923 13.8683 22.1639 13.7972C22.2354 13.7261 22.2755 13.6302 22.2755 13.5303C22.2577 11.0502 21.4881 9.03518 19.9617 7.57515C18.4455 6.12512 16.5317 5.38386 14.2956 5.36886H14.2943ZM9.24875 6.23762C8.97787 6.20083 8.70216 6.2522 8.46389 6.38388L8.45115 6.38638C7.90327 6.69513 7.41145 7.08889 6.99099 7.5514C6.98844 7.5564 6.98334 7.5564 6.9808 7.5614C6.6406 7.96516 6.44566 8.35892 6.39469 8.74642C6.38472 8.80421 6.38172 8.86295 6.38578 8.92143C6.38578 9.09143 6.41381 9.25893 6.46859 9.42144L6.48516 9.43394C6.65717 10.0339 7.08782 11.029 8.02049 12.689C8.55562 13.649 9.17103 14.564 9.86289 15.4216C10.2069 15.8516 10.5764 16.2628 10.9714 16.6516L11.1396 16.8166C11.5346 17.2016 11.955 17.5666 12.3933 17.9041C13.2681 18.583 14.1998 19.1881 15.1786 19.7129C16.8706 20.6292 17.8874 21.0504 18.4964 21.2204L18.5092 21.2379C18.7308 21.309 18.9655 21.3325 19.1972 21.3067C19.5922 21.2617 19.9961 21.0692 20.4051 20.7317C20.4102 20.7317 20.4089 20.7292 20.4153 20.7254C20.8867 20.3129 21.2855 19.8254 21.6002 19.2904L21.604 19.2779C21.8907 18.7379 21.7952 18.2254 21.3747 17.8779C21.3696 17.8779 20.4853 17.1528 20.0534 16.8403C19.5947 16.5216 19.1233 16.2253 18.6353 15.9528C17.9855 15.5966 17.3204 15.8203 17.0452 16.1703L16.4756 16.8753C16.1826 17.2291 15.6385 17.1828 15.6385 17.1828C11.6632 16.1878 10.5993 12.239 10.5993 12.239C10.5993 12.239 10.5522 11.7065 10.9153 11.419L11.6327 10.859C11.9856 10.5902 12.2137 9.9377 11.8493 9.29893C11.5725 8.81929 11.2706 8.35407 10.9446 7.90516C10.6025 7.46586 10.2498 7.03449 9.88709 6.61138C9.72732 6.41508 9.49977 6.28301 9.24748 6.24012L9.24875 6.23762ZM14.9696 7.33765C14.8672 7.33466 14.7678 7.37171 14.6933 7.44063C14.6187 7.50955 14.5751 7.6047 14.5721 7.70515C14.569 7.80561 14.6068 7.90313 14.6771 7.97627C14.7473 8.04941 14.8443 8.09218 14.9467 8.09516C16.4247 8.20141 17.5166 8.67767 18.3168 9.53269C19.1195 10.3927 19.5017 11.4377 19.4711 12.7453C19.4767 12.8414 19.519 12.9319 19.5896 12.9988C19.6602 13.0657 19.754 13.1039 19.8521 13.106C19.9502 13.108 20.0455 13.0737 20.119 13.0099C20.1924 12.946 20.2386 12.8573 20.2484 12.7615C20.2802 11.2927 19.8228 10.0202 18.8889 9.01893C17.946 8.00641 16.6247 7.45265 15.0027 7.3364H14.9722L14.9696 7.33765ZM15.5595 9.37519C15.4614 9.3766 15.3675 9.41437 15.2966 9.48091C15.2257 9.54745 15.1831 9.63785 15.1773 9.73394C15.1671 9.9427 15.3302 10.1215 15.5443 10.134C16.2106 10.169 16.6591 10.3527 16.9624 10.6615C17.2682 10.9677 17.4567 11.4365 17.4924 12.1165C17.5055 12.2107 17.5542 12.2967 17.6288 12.3575C17.7034 12.4182 17.7985 12.4493 17.8954 12.4446C17.9922 12.4399 18.0837 12.3997 18.1518 12.332C18.2199 12.2643 18.2597 12.174 18.2633 12.079C18.225 11.274 17.9893 10.6065 17.5243 10.1327C17.0566 9.66019 16.3865 9.41519 15.5876 9.37394H15.5646L15.5595 9.37519Z" fill="#7A7E85"/>
</svg>
