<svg width="24" height="20" viewBox="0 0 24 20" fill="none" xmlns="http://www.w3.org/2000/svg">
<path fill-rule="evenodd" clip-rule="evenodd" d="M5.5 4.75C5.5 2.95507 6.95507 1.5 8.75 1.5C10.5449 1.5 12 2.95507 12 4.75C12 6.54493 10.5449 8 8.75 8C6.95507 8 5.5 6.54493 5.5 4.75ZM8.75 0C6.12665 0 4 2.12665 4 4.75C4 7.37335 6.12665 9.5 8.75 9.5C11.3734 9.5 13.5 7.37335 13.5 4.75C13.5 2.12665 11.3734 0 8.75 0ZM4.75 12C3.49022 12 2.28204 12.5004 1.39124 13.3912C0.500445 14.282 0 15.4902 0 16.75V18.75C0 19.1642 0.335786 19.5 0.75 19.5C1.16421 19.5 1.5 19.1642 1.5 18.75V16.75C1.5 15.888 1.84241 15.0614 2.4519 14.4519C3.0614 13.8424 3.88805 13.5 4.75 13.5H12.75C13.612 13.5 14.4386 13.8424 15.0481 14.4519C15.6576 15.0614 16 15.888 16 16.75V18.75C16 19.1642 16.3358 19.5 16.75 19.5C17.1642 19.5 17.5 19.1642 17.5 18.75V16.75C17.5 15.4902 16.9996 14.282 16.1088 13.3912C15.218 12.5004 14.0098 12 12.75 12H4.75ZM19.0238 12.6924C19.1274 12.2913 19.5364 12.0501 19.9375 12.1537C20.9565 12.4168 21.8593 13.0109 22.5041 13.8427C23.1489 14.6745 23.4992 15.6969 23.5 16.7493V16.7499V18.7499C23.5 19.1641 23.1642 19.4999 22.75 19.4999C22.3358 19.4999 22 19.1641 22 18.7499V16.7504V16.7501C21.9994 16.0302 21.7597 15.3307 21.3186 14.7617C20.8774 14.1926 20.2597 13.7861 19.5625 13.6061C19.1614 13.5025 18.9203 13.0934 19.0238 12.6924ZM15.936 0.15332C15.5348 0.0505791 15.1262 0.292584 15.0234 0.693853C14.9207 1.09512 15.1627 1.5037 15.564 1.60645C16.2631 1.78544 16.8827 2.19201 17.3252 2.76207C17.7677 3.33213 18.0078 4.03325 18.0078 4.75488C18.0078 5.47652 17.7677 6.17763 17.3252 6.74769C16.8827 7.31775 16.2631 7.72433 15.564 7.90332C15.1627 8.00606 14.9207 8.41464 15.0234 8.81591C15.1262 9.21718 15.5348 9.45919 15.936 9.35645C16.9578 9.09484 17.8634 8.50061 18.5101 7.66745C19.1568 6.83429 19.5078 5.80959 19.5078 4.75488C19.5078 3.70018 19.1568 2.67547 18.5101 1.84231C17.8634 1.00915 16.9578 0.414928 15.936 0.15332Z" fill="#494E55"/>
</svg>
