<svg width="31" height="22" viewBox="0 0 31 22" fill="none" xmlns="http://www.w3.org/2000/svg">
<path fill-rule="evenodd" clip-rule="evenodd" d="M15.0407 0.75C15.0407 0 15.0406 0 15.0405 0H15.0401H15.0388L15.0338 2.38419e-06L15.0141 1.86563e-05L14.9381 0.0001477C14.8715 0.000294924 14.7738 0.000588775 14.6487 0.0011754C14.3987 0.00234866 14.0393 0.00469339 13.6012 0.0093801C12.7253 0.0187502 11.5333 0.0374962 10.2702 0.0750282C9.0084 0.112525 7.66969 0.16894 6.50227 0.25409C5.35583 0.337711 4.31111 0.452857 3.67477 0.623042L3.67475 0.622967L3.66437 0.625905C2.92582 0.834854 2.25549 1.235 1.72108 1.78593C1.18668 2.33687 0.807128 3.01907 0.620765 3.76364C0.616707 3.77985 0.613192 3.79619 0.610227 3.81264C0.193402 6.12402 -0.0106164 8.46875 0.000731226 10.8174C-0.0138678 13.1837 0.190166 15.5463 0.610232 17.8751C0.614626 17.8995 0.620222 17.9236 0.627002 17.9474C0.832459 18.6689 1.22051 19.3251 1.75367 19.8528C2.28683 20.3804 2.94707 20.7617 3.6706 20.9597L3.67477 20.9608C4.31111 21.131 5.35583 21.2461 6.50227 21.3297C7.66969 21.4149 9.0084 21.4713 10.2702 21.5088C11.5333 21.5463 12.7253 21.5651 13.6012 21.5744C14.0393 21.5791 14.3987 21.5815 14.6487 21.5826C14.7738 21.5832 14.8715 21.5835 14.9381 21.5837L15.0141 21.5838L15.0338 21.5838L15.0388 21.5838H15.0401H15.0405C15.0406 21.5838 15.0407 21.5838 15.0407 20.8338C15.0407 21.5838 15.0407 21.5838 15.0408 21.5838H15.0412H15.0425L15.0475 21.5838L15.0672 21.5838L15.1432 21.5837C15.2098 21.5835 15.3075 21.5832 15.4326 21.5826C15.6826 21.5815 16.042 21.5791 16.4801 21.5744C17.356 21.5651 18.548 21.5463 19.8111 21.5088C21.0729 21.4713 22.4116 21.4149 23.579 21.3297C24.7255 21.2461 25.7702 21.131 26.4065 20.9608L26.4066 20.9609L26.4169 20.9579C27.1555 20.749 27.8258 20.3488 28.3602 19.7979C28.8946 19.247 29.2742 18.5648 29.4605 17.8202C29.4646 17.804 29.4681 17.7876 29.4711 17.7712C29.8847 15.477 30.0887 13.1499 30.0806 10.8187C30.0952 8.4523 29.8912 6.08956 29.4711 3.76064L28.733 3.89378L29.4605 3.71168C29.2742 2.96711 28.8946 2.2849 28.3602 1.73397C27.8258 1.18304 27.1555 0.78289 26.4169 0.573941C26.4082 0.571477 26.3995 0.56917 26.3907 0.567022C25.7603 0.413087 24.721 0.308205 23.5743 0.231839C22.4082 0.154181 21.0705 0.102702 19.8091 0.0684778C18.5466 0.034224 17.355 0.0171137 16.4794 0.00856102C16.0415 0.00428331 15.6822 0.00214326 15.4323 0.00107253C15.3073 0.000537157 15.2096 0.000268996 15.1431 0.000134706L15.0671 1.69873e-05L15.0475 2.14577e-06L15.0425 0H15.0412H15.0408C15.0407 0 15.0407 0 15.0407 0.75ZM15.0407 0.75L15.0406 1.5H15.0403L15.0392 1.5L15.0346 1.5L15.0158 1.50002L14.9414 1.50014C14.876 1.50029 14.7795 1.50058 14.6558 1.50116C14.4083 1.50232 14.052 1.50464 13.6172 1.50929C12.7475 1.5186 11.5655 1.5372 10.3148 1.57437C9.06289 1.61157 7.74822 1.6672 6.61139 1.75012C5.45776 1.83426 4.54974 1.94273 4.06752 2.07073C3.58503 2.20822 3.14713 2.47016 2.79777 2.83032C2.45267 3.18609 2.206 3.6253 2.08174 4.10484C1.6841 6.3189 1.48962 8.56469 1.50073 10.8142L1.50078 10.8226H1.50073C1.48652 13.0849 1.68026 15.3436 2.07948 17.5704C2.21663 18.0304 2.46737 18.4487 2.80882 18.7866C3.1581 19.1323 3.59051 19.3822 4.06438 19.5123C4.54579 19.6406 5.45524 19.7494 6.61139 19.8337C7.74822 19.9166 9.06289 19.9723 10.3148 20.0095C11.5655 20.0466 12.7475 20.0652 13.6172 20.0745C14.052 20.0792 14.4083 20.0815 14.6558 20.0827C14.7795 20.0832 14.876 20.0835 14.9414 20.0837L15.0158 20.0838L15.0346 20.0838L15.0392 20.0838H15.0403H15.0406L15.0407 20.8338L15.0407 20.0838H15.041H15.0421L15.0467 20.0838L15.0656 20.0838L15.1399 20.0837C15.2053 20.0835 15.3018 20.0832 15.4255 20.0827C15.673 20.0815 16.0293 20.0792 16.4641 20.0745C17.3338 20.0652 18.5158 20.0466 19.7665 20.0095C21.0184 19.9723 22.3331 19.9166 23.4699 19.8337C24.6236 19.7496 25.5316 19.6411 26.0138 19.5131C26.4963 19.3756 26.9342 19.1137 27.2835 18.7535C27.6286 18.3977 27.8753 17.9585 27.9996 17.479C28.3941 15.2817 28.5886 13.0531 28.5806 10.8206L28.5805 10.8132H28.5806C28.5948 8.54668 28.4003 6.28369 27.9996 4.05289C27.8753 3.57335 27.6286 3.13413 27.2835 2.77836C26.9361 2.42014 26.501 2.15908 26.0216 2.021C25.5315 1.90354 24.6218 1.80492 23.4746 1.72852C22.3365 1.65273 21.0208 1.6019 19.7685 1.56793C18.5172 1.53398 17.3348 1.51699 16.4648 1.50849C16.0299 1.50424 15.6734 1.50212 15.4258 1.50106C15.3021 1.50053 15.2055 1.50026 15.1401 1.50013L15.0656 1.50002L15.0468 1.5L15.0421 1.5L15.041 1.5H15.0407L15.0407 0.75ZM12.4889 5.91788C12.2568 5.78585 11.9719 5.78724 11.741 5.92153C11.5102 6.05582 11.3682 6.30275 11.3682 6.56982V15.0658C11.3682 15.3329 11.5102 15.5798 11.741 15.7141C11.9719 15.8484 12.2568 15.8498 12.4889 15.7178L19.9587 11.4698C20.1931 11.3365 20.3379 11.0875 20.3379 10.8178C20.3379 10.5481 20.1931 10.2992 19.9587 10.1659L12.4889 5.91788ZM18.0707 10.8178L12.8682 13.7765V7.85914L18.0707 10.8178Z" fill="#7A7E85"/>
</svg>
