<svg width="16" height="24" viewBox="0 0 16 24" fill="none" xmlns="http://www.w3.org/2000/svg">
<path fill-rule="evenodd" clip-rule="evenodd" d="M1.5 8.25C1.5 4.79822 4.29822 2 7.75 2C11.2018 2 14 4.79822 14 8.25C14 10.4234 12.8907 12.3376 11.2073 13.4575C11.156 13.4829 11.1082 13.5139 11.0647 13.5496C10.1039 14.1518 8.96759 14.5 7.75 14.5C4.29822 14.5 1.5 11.7018 1.5 8.25ZM10.9406 15.3148C9.96759 15.755 8.88741 16 7.75 16C6.61302 16 5.53322 15.7552 4.56046 15.3153L3.69833 21.8062L7.36413 19.6068C7.60164 19.4643 7.89836 19.4643 8.13587 19.6068L11.8019 21.8064L10.9406 15.3148ZM3.15656 14.4927C1.24203 13.0816 0 10.8108 0 8.25C0 3.96979 3.46979 0.5 7.75 0.5C12.0302 0.5 15.5 3.96979 15.5 8.25C15.5 10.8103 14.2585 13.0806 12.3446 14.4918L13.4935 23.1512C13.5314 23.4367 13.4024 23.7187 13.1617 23.8768C12.921 24.0349 12.6111 24.0412 12.3641 23.893L7.75 21.1245L3.13587 23.893C2.88892 24.0412 2.57893 24.0349 2.33822 23.8767C2.09752 23.7186 1.96861 23.4366 2.00653 23.1511L3.15656 14.4927Z" fill="#494E55"/>
</svg>
