<svg width="27" height="32" viewBox="0 0 27 32" fill="none" xmlns="http://www.w3.org/2000/svg">
<path fill-rule="evenodd" clip-rule="evenodd" d="M4.90788 4.90788C7.08991 2.72585 10.0494 1.5 13.1352 1.5C16.2211 1.5 19.1806 2.72585 21.3626 4.90788C23.5446 7.08991 24.7705 10.0494 24.7705 13.1352C24.7705 17.6503 21.8499 21.9398 18.7834 25.1767C17.2655 26.7789 15.745 28.0884 14.6032 28.9977C14.0329 29.4518 13.5586 29.8049 13.2283 30.0434L13.1352 30.1103L13.0422 30.0434C12.7119 29.8049 12.2375 29.4518 11.6672 28.9977C10.5254 28.0884 9.00498 26.7789 7.48708 25.1767C4.42061 21.9398 1.5 17.6503 1.5 13.1352C1.5 10.0494 2.72585 7.08991 4.90788 4.90788ZM12.7187 31.6487C12.719 31.6489 12.7192 31.6491 13.1352 31.025L12.7192 31.6491C12.9711 31.817 13.2993 31.817 13.5513 31.6491L13.1352 31.025C13.5513 31.6491 13.5515 31.6489 13.5517 31.6487L13.5525 31.6482L13.5548 31.6467L13.5629 31.6413L13.5922 31.6215C13.6174 31.6043 13.6541 31.5792 13.7014 31.5465C13.7959 31.481 13.933 31.3848 14.1065 31.2594C14.4536 31.0088 14.9468 30.6415 15.5376 30.1711C16.718 29.2311 18.2939 27.8744 19.8723 26.2083C22.9985 22.9085 26.2705 18.2532 26.2705 13.1352C26.2705 9.65155 24.8866 6.31055 22.4232 3.84722C19.9599 1.38389 16.6189 0 13.1352 0C9.65155 0 6.31055 1.38389 3.84722 3.84722C1.38389 6.31055 0 9.65155 0 13.1352C0 18.2532 3.27201 22.9085 6.39815 26.2083C7.97656 27.8744 9.55242 29.2311 10.7328 30.1711C11.3237 30.6415 11.8169 31.0088 12.1639 31.2594C12.3375 31.3848 12.4746 31.481 12.5691 31.5465C12.6164 31.5792 12.653 31.6043 12.6783 31.6215L12.7076 31.6413L12.7156 31.6467L12.718 31.6482L12.7187 31.6487ZM9.75684 13.1357C9.75684 11.2699 11.2694 9.75732 13.1352 9.75732C15.0011 9.75732 16.5137 11.2699 16.5137 13.1357C16.5137 15.0016 15.0011 16.5141 13.1352 16.5141C11.2694 16.5141 9.75684 15.0016 9.75684 13.1357ZM13.1352 8.25732C10.441 8.25732 8.25684 10.4415 8.25684 13.1357C8.25684 15.83 10.441 18.0141 13.1352 18.0141C15.8295 18.0141 18.0137 15.83 18.0137 13.1357C18.0137 10.4415 15.8295 8.25732 13.1352 8.25732Z" fill="#7A7E85"/>
</svg>
