<svg width="24" height="14" viewBox="0 0 24 14" fill="none" xmlns="http://www.w3.org/2000/svg">
<path fill-rule="evenodd" clip-rule="evenodd" d="M16.75 0C16.3358 0 16 0.335786 16 0.75C16 1.16421 16.3358 1.5 16.75 1.5H20.9393L13.25 9.18934L8.78033 4.71967C8.48744 4.42678 8.01256 4.42678 7.71967 4.71967L0.21967 12.2197C-0.0732233 12.5126 -0.0732233 12.9874 0.21967 13.2803C0.512563 13.5732 0.987437 13.5732 1.28033 13.2803L8.25 6.31066L12.7197 10.7803C13.0126 11.0732 13.4874 11.0732 13.7803 10.7803L22 2.56066V6.75C22 7.16421 22.3358 7.5 22.75 7.5C23.1642 7.5 23.5 7.16421 23.5 6.75V0.75C23.5 0.558058 23.4268 0.366117 23.2803 0.21967C23.2084 0.147763 23.1255 0.093509 23.0371 0.0569091C22.9487 0.0202391 22.8517 0 22.75 0H16.75Z" fill="#494E55"/>
</svg>
